<?xml version="1.0" encoding="UTF-8" standalone="no"?>
<!-- Created with Inkscape (http://www.inkscape.org/) -->

<svg
   xmlns:osb="http://www.openswatchbook.org/uri/2009/osb"
   xmlns:dc="http://purl.org/dc/elements/1.1/"
   xmlns:cc="http://creativecommons.org/ns#"
   xmlns:rdf="http://www.w3.org/1999/02/22-rdf-syntax-ns#"
   xmlns:svg="http://www.w3.org/2000/svg"
   xmlns="http://www.w3.org/2000/svg"
   xmlns:xlink="http://www.w3.org/1999/xlink"
   xmlns:sodipodi="http://sodipodi.sourceforge.net/DTD/sodipodi-0.dtd"
   xmlns:inkscape="http://www.inkscape.org/namespaces/inkscape"
   viewBox="0 0 111.31496 150.00351"
   version="1.1"
   id="svg4055"
   sodipodi:docname="studint-cup.svg"
   inkscape:version="0.92.3 (2405546, 2018-03-11)">
  <defs
     id="defs4049">
    <linearGradient
       inkscape:collect="always"
       id="linearGradient8507">
      <stop
         style="stop-color:#7e7e7e;stop-opacity:1"
         offset="0"
         id="stop8503" />
      <stop
         style="stop-color:#e3e3e3;stop-opacity:1"
         offset="1"
         id="stop8505" />
    </linearGradient>
    <linearGradient
       inkscape:collect="always"
       id="linearGradient8478"
       osb:paint="gradient">
      <stop
         style="stop-color:#a9a9a9;stop-opacity:1;"
         offset="0"
         id="stop8474" />
      <stop
         style="stop-color:#a9a9a9;stop-opacity:0;"
         offset="1"
         id="stop8476" />
    </linearGradient>
    <linearGradient
       inkscape:collect="always"
       id="linearGradient8378">
      <stop
         style="stop-color:#000000;stop-opacity:1;"
         offset="0"
         id="stop8374" />
      <stop
         style="stop-color:#fefefe;stop-opacity:1"
         offset="1"
         id="stop8376" />
    </linearGradient>
    <linearGradient
       inkscape:collect="always"
       xlink:href="#linearGradient8378"
       id="linearGradient8380"
       x1="-500"
       y1="614.51971"
       x2="618"
       y2="614.51971"
       gradientUnits="userSpaceOnUse" />
    <linearGradient
       inkscape:collect="always"
       xlink:href="#linearGradient8507"
       id="linearGradient8509"
       x1="50.681255"
       y1="116.05853"
       x2="160.99622"
       y2="116.05853"
       gradientUnits="userSpaceOnUse" />
  </defs>
  <sodipodi:namedview
     id="base"
     pagecolor="#ffffff"
     bordercolor="#666666"
     borderopacity="1.0"
     inkscape:pageopacity="0.0"
     inkscape:pageshadow="2"
     inkscape:zoom="1.4142136"
     inkscape:cx="272.1092"
     inkscape:cy="304.57912"
     inkscape:document-units="mm"
     inkscape:current-layer="layer1"
     showgrid="false"
     inkscape:window-width="1536"
     inkscape:window-height="801"
     inkscape:window-x="-8"
     inkscape:window-y="-8"
     inkscape:window-maximized="1"
     fit-margin-top="0"
     fit-margin-left="0"
     fit-margin-right="0"
     fit-margin-bottom="0" />
  <metadata
     id="metadata4052">
    <rdf:RDF>
      <cc:Work
         rdf:about="">
        <dc:format>image/svg+xml</dc:format>
        <dc:type
           rdf:resource="http://purl.org/dc/dcmitype/StillImage" />
        <dc:title></dc:title>
      </cc:Work>
    </rdf:RDF>
  </metadata>
  <g
     inkscape:label="Layer 1"
     inkscape:groupmode="layer"
     id="layer1"
     transform="translate(-50.181254,-98.620593)">
    <path
       style="opacity:1;fill:url(#linearGradient8380);fill-opacity:1;fill-rule:evenodd;stroke:none;stroke-width:1.82173228;stroke-miterlimit:10;stroke-dasharray:none;stroke-dashoffset:0;stroke-opacity:1"
       d="m 606.0918,438.64648 -412.16797,1.29493 56.39258,438.12109 h 0.20117 A 147.48227,61.619301 0 0 0 398,939.68164 147.48227,61.619301 0 0 0 545.48242,878.0625 Z"
       transform="scale(0.26458333)"
       id="path4600-4"
       inkscape:connector-curvature="0" />
    <path
       style="display:inline;fill:#333333;fill-opacity:1;fill-rule:evenodd;stroke:none;stroke-width:1.26900005;stroke-miterlimit:10;stroke-dasharray:none;stroke-dashoffset:0;stroke-opacity:1"
       d="M 51.315754,116.05853 A 54.522984,16.30344 0 0 0 105.83873,132.36197 54.522984,16.30344 0 0 0 160.36172,116.05853 54.522984,16.30344 0 0 0 105.83873,99.755093 54.522984,16.30344 0 0 0 51.315754,116.05853 Z"
       id="path4600"
       inkscape:connector-curvature="0" />
    <path
       style="opacity:1;fill:#7e5a3a;fill-opacity:1;fill-rule:evenodd;stroke:none;stroke-width:0.56922501;stroke-miterlimit:10;stroke-dasharray:0.56922504, 2.27690016;stroke-dashoffset:0;stroke-opacity:1"
       d="m 105.6293,110.46757 a 45.674621,13.657606 0 0 0 -45.674211,13.65757 45.674621,13.657606 0 0 0 0.132808,1.01286 54.522984,16.30344 0 0 0 45.541403,7.35303 54.522984,16.30344 0 0 0 45.50369,-7.34373 45.674621,13.657606 0 0 0 0.17105,-1.02216 45.674621,13.657606 0 0 0 -45.67474,-13.65757 z"
       id="path4600-2"
       inkscape:connector-curvature="0" />
    <path
       inkscape:connector-curvature="0"
       id="path8458"
       d="M 160.36172,116.05853 A 54.522984,16.30344 0 0 1 105.83874,132.36197 54.522984,16.30344 0 0 1 51.315754,116.05853 54.522984,16.30344 0 0 1 105.83874,99.755093 54.522984,16.30344 0 0 1 160.36172,116.05853 Z"
       style="display:inline;fill:none;fill-opacity:1;fill-rule:evenodd;stroke:url(#linearGradient8509);stroke-width:2.26900005;stroke-miterlimit:10;stroke-dasharray:none;stroke-dashoffset:0;stroke-opacity:1" />
    <path
       inkscape:connector-curvature="0"
       id="path8580"
       d="m 51.315754,163.01779 a 54.522984,16.30344 0 0 0 54.522976,16.30344 54.522984,16.30344 0 0 0 54.52299,-16.30344 54.522984,16.30344 0 0 0 -54.52299,-16.30344 54.522984,16.30344 0 0 0 -54.522976,16.30344 z"
       style="display:inline;fill:none;fill-opacity:1;fill-rule:evenodd;stroke:none;stroke-width:1.26900005;stroke-miterlimit:10;stroke-dasharray:none;stroke-dashoffset:0;stroke-opacity:1" />
    <g
       aria-label="studint"
       transform="translate(0,34.798492)"
       style="font-style:normal;font-weight:normal;font-size:10.58333302px;line-height:7.14374971px;font-family:sans-serif;letter-spacing:0px;word-spacing:0px;fill:#000000;fill-opacity:1;stroke:none;stroke-width:0.26458332px;stroke-linecap:butt;stroke-linejoin:miter;stroke-opacity:1"
       id="text8588">
      <path
         d="m 80.099967,126.94466 q -3.400686,-0.55138 -2.070266,-3.50467 1.301193,-2.90218 4.701879,-2.3508 l 5.441097,0.8822 -1.168849,2.60256 -5.441098,-0.88221 q -0.680137,-0.11028 -0.812481,0.18935 -0.161569,0.35074 0.518568,0.46101 l 2.040412,0.33083 q 3.400686,0.55138 2.099493,3.45356 -1.33042,2.95329 -4.731106,2.40191 l -4.080823,-0.66165 1.16885,-2.60256 4.080823,0.66166 q 0.680137,0.11027 0.841707,-0.24046 0.132343,-0.29963 -0.547794,-0.40991 z"
         style="font-style:normal;font-variant:normal;font-weight:normal;font-stretch:normal;font-size:14.11111164px;font-family:'Knife Princess';-inkscape-font-specification:'Knife Princess';fill:#ff6511;fill-opacity:1;stroke-width:0.26458332px"
         id="path8690"
         inkscape:connector-curvature="0" />
      <path
         d="m 92.747702,125.00735 -2.496032,6.68239 -3.740525,2.40993 3.493073,-9.35548 -2.743484,-0.26316 0.997041,-2.67309 8.230452,0.78948 -0.997041,2.67308 z"
         style="font-style:normal;font-variant:normal;font-weight:normal;font-stretch:normal;font-size:14.11111164px;font-family:'Knife Princess';-inkscape-font-specification:'Knife Princess';fill:#ff6511;fill-opacity:1;stroke-width:0.26458332px"
         id="path8692"
         inkscape:connector-curvature="0" />
      <path
         d="m 95.181888,127.24806 1.491265,-4.76434 2.753612,0.11654 -1.491266,4.76434 q -0.645014,2.04161 0.731792,2.09988 1.376809,0.0583 2.021819,-1.98334 l 1.49127,-4.76433 2.75361,0.11654 -1.49127,4.76434 q -1.49815,4.76404 -5.628564,4.58923 -4.130417,-0.17482 -2.632268,-4.93886 z"
         style="font-style:normal;font-variant:normal;font-weight:normal;font-stretch:normal;font-size:14.11111164px;font-family:'Knife Princess';-inkscape-font-specification:'Knife Princess';fill:#ff6511;fill-opacity:1;stroke-width:0.26458332px"
         id="path8694"
         inkscape:connector-curvature="0" />
      <path
         d="m 102.63677,132.39738 2.49875,-9.66865 4.82295,-0.0425 q 4.13395,-0.0364 2.88802,4.79788 -1.25282,4.83435 -5.38677,4.87077 z m 4.54178,-6.93046 -1.07286,4.14372 2.06697,-0.0182 q 1.37799,-0.0121 1.91786,-2.08404 0.53299,-2.07183 -0.845,-2.05969 z"
         style="font-style:normal;font-variant:normal;font-weight:normal;font-stretch:normal;font-size:14.11111164px;font-family:'Knife Princess';-inkscape-font-specification:'Knife Princess';fill:#ff6511;fill-opacity:1;stroke-width:0.26458332px"
         id="path8696"
         inkscape:connector-curvature="0" />
      <path
         d="m 117.18342,122.38153 -2.14829,9.75251 -2.7533,0.1237 2.14829,-9.75251 z m -0.48152,-4.11665 q 0.71585,-0.0322 1.10324,0.45393 0.39427,0.48577 0.2337,1.21029 -0.16057,0.72452 -0.77814,1.25575 -0.61068,0.53093 -1.32654,0.56309 -0.71586,0.0322 -1.11013,-0.45362 -0.38738,-0.48608 -0.22681,-1.2106 0.16057,-0.72452 0.77125,-1.25544 0.61757,-0.53124 1.33343,-0.5634 z"
         style="font-style:normal;font-variant:normal;font-weight:normal;font-stretch:normal;font-size:14.11111164px;font-family:'Knife Princess';-inkscape-font-specification:'Knife Princess';fill:#333333;fill-opacity:1;stroke-width:0.26458332px"
         id="path8698"
         inkscape:connector-curvature="0" />
      <path
         d="m 119.36299,127.02108 -0.8878,4.91451 -3.25081,3.03835 2.2731,-12.63649 2.74644,-0.2303 2.55211,4.62606 0.88093,-4.91394 3.25081,-3.03834 -2.2731,12.63648 -2.74643,0.2303 z"
         style="font-style:normal;font-variant:normal;font-weight:normal;font-stretch:normal;font-size:14.11111164px;font-family:'Knife Princess';-inkscape-font-specification:'Knife Princess';fill:#333333;fill-opacity:1;stroke-width:0.26458332px"
         id="path8700"
         inkscape:connector-curvature="0" />
      <path
         d="m 131.62355,123.47499 -0.82487,7.08549 -3.05536,3.23482 1.15345,-9.91948 -2.72677,0.40083 0.32858,-2.834 8.18033,-1.20248 -0.32859,2.834 z"
         style="font-style:normal;font-variant:normal;font-weight:normal;font-stretch:normal;font-size:14.11111164px;font-family:'Knife Princess';-inkscape-font-specification:'Knife Princess';fill:#333333;fill-opacity:1;stroke-width:0.26458332px"
         id="path8702"
         inkscape:connector-curvature="0" />
    </g>
  </g>
</svg>
